<?xml version="1.0" encoding="UTF-8"?>
<svg id="_图层_2" data-name="图层_2" xmlns="http://www.w3.org/2000/svg" viewBox="0 0 534.12 304.69">
  <defs>
    <style>
      .cls-1 {
        fill: #fff;
      }

      .cls-2 {
        fill: #f3acb4;
      }
    </style>
  </defs>
  <g id="_图层_1-2" data-name="图层_1">
    <g>
      <path class="cls-1" d="M7.99,108.97h67.64v7.2H0V6.58h73.28v7.2H7.99v95.2ZM7.05,56.99h59.34v7.05H7.05v-7.05Z"/>
      <path class="cls-1" d="M132.3,116.8c-7.62,0-14.48-1.75-20.59-5.24-6.11-3.5-10.94-8.38-14.48-14.64-3.55-6.26-5.32-13.46-5.32-21.61s1.77-15.47,5.32-21.68c3.55-6.21,8.38-11.06,14.48-14.56,6.11-3.5,12.97-5.24,20.59-5.24,7.2,0,13.7,1.67,19.49,5.01,5.79,3.34,10.39,8.09,13.78,14.25,3.39,6.16,5.09,13.57,5.09,22.23s-1.67,15.81-5.01,22.08c-3.34,6.26-7.91,11.07-13.7,14.4-5.79,3.34-12.34,5.01-19.65,5.01ZM132.77,109.76c6.26,0,11.87-1.43,16.83-4.31,4.96-2.87,8.87-6.91,11.74-12.13,2.87-5.22,4.31-11.22,4.31-18.01s-1.44-12.92-4.31-18.08c-2.87-5.17-6.79-9.18-11.74-12.06-4.96-2.87-10.57-4.31-16.83-4.31s-11.88,1.44-16.83,4.31c-4.96,2.87-8.87,6.89-11.74,12.06-2.87,5.17-4.31,11.19-4.31,18.08s1.43,12.79,4.31,18.01c2.87,5.22,6.78,9.27,11.74,12.13,4.96,2.87,10.57,4.31,16.83,4.31ZM165.81,116.18v-26.77l1.41-14.25-1.57-14.25V0h7.83v116.18h-7.67Z"/>
      <path class="cls-1" d="M239.71,116.8c-8.25,0-15.53-1.77-21.84-5.32-6.32-3.55-11.27-8.45-14.87-14.72-3.6-6.26-5.4-13.41-5.4-21.45s1.7-15.32,5.09-21.53c3.39-6.21,8.06-11.09,14.01-14.64,5.95-3.55,12.63-5.32,20.04-5.32s14.06,1.72,19.96,5.17c5.9,3.45,10.54,8.27,13.94,14.48,3.39,6.21,5.09,13.39,5.09,21.53,0,.31-.03.65-.08,1.02-.05.37-.08.76-.08,1.17h-72.18v-6.11h67.95l-3.13,2.98c.1-6.37-1.23-12.08-3.99-17.14-2.77-5.06-6.5-9.03-11.19-11.9-4.7-2.87-10.13-4.31-16.28-4.31s-11.46,1.44-16.2,4.31c-4.75,2.87-8.48,6.84-11.2,11.9-2.72,5.06-4.07,10.83-4.07,17.3v1.41c0,6.68,1.49,12.6,4.46,17.77,2.98,5.17,7.07,9.19,12.29,12.06,5.22,2.87,11.17,4.31,17.85,4.31,5.22,0,10.1-.94,14.64-2.82,4.54-1.88,8.38-4.75,11.51-8.61l4.54,5.17c-3.55,4.38-8.01,7.7-13.39,9.94-5.38,2.25-11.19,3.37-17.46,3.37Z"/>
      <path class="cls-1" d="M339.91,33.82c6.68,0,12.5,1.28,17.46,3.84,4.96,2.56,8.82,6.42,11.59,11.59,2.76,5.17,4.15,11.56,4.15,19.18v47.75h-7.83v-47.13c0-9.18-2.32-16.18-6.97-20.98-4.65-4.8-11.14-7.2-19.49-7.2-6.37,0-11.9,1.31-16.6,3.91-4.7,2.61-8.27,6.26-10.73,10.96-2.45,4.7-3.68,10.33-3.68,16.91v43.53h-7.83V34.45h7.51v22.7l-1.1-2.51c2.51-6.47,6.63-11.56,12.37-15.27,5.74-3.7,12.78-5.56,21.14-5.56Z"/>
      <path class="cls-1" d="M409.27,14.56c-1.78,0-3.29-.63-4.54-1.88-1.25-1.25-1.88-2.71-1.88-4.38,0-1.77.63-3.29,1.88-4.54,1.25-1.25,2.76-1.88,4.54-1.88,1.88,0,3.42.6,4.62,1.8,1.2,1.2,1.8,2.69,1.8,4.46s-.6,3.29-1.8,4.54c-1.2,1.25-2.74,1.88-4.62,1.88ZM405.36,116.18V34.45h7.83v81.73h-7.83Z"/>
      <path class="cls-1" d="M478.63,116.8c-7.93,0-15.01-1.77-21.22-5.32-6.21-3.55-11.12-8.45-14.72-14.72-3.6-6.26-5.4-13.41-5.4-21.45s1.8-15.34,5.4-21.61c3.6-6.26,8.51-11.14,14.72-14.64,6.21-3.5,13.28-5.24,21.22-5.24,6.58,0,12.55,1.25,17.93,3.76,5.37,2.51,9.73,6.26,13.07,11.27l-5.79,4.23c-2.92-4.17-6.58-7.25-10.96-9.24-4.38-1.98-9.13-2.97-14.25-2.97-6.37,0-12.08,1.44-17.14,4.31-5.06,2.87-9.03,6.89-11.9,12.06-2.87,5.17-4.31,11.19-4.31,18.08s1.43,12.92,4.31,18.08c2.87,5.17,6.84,9.19,11.9,12.06,5.06,2.87,10.78,4.31,17.14,4.31,5.11,0,9.86-.99,14.25-2.97,4.38-1.98,8.04-5.06,10.96-9.24l5.79,4.23c-3.34,5.01-7.7,8.77-13.07,11.27-5.38,2.51-11.35,3.76-17.93,3.76Z"/>
      <path class="cls-1" d="M0,304.06v-109.6h7.99v102.4h63.1v7.2H0Z"/>
      <path class="cls-1" d="M111.16,304.69c-6.05,0-11.3-.96-15.74-2.9-4.44-1.93-7.83-4.67-10.18-8.22-2.35-3.55-3.52-7.62-3.52-12.21,0-4.17.96-7.96,2.9-11.35,1.93-3.39,5.14-6.16,9.63-8.3,4.49-2.14,10.49-3.21,18.01-3.21h30.06v6.11h-29.9c-8.45,0-14.38,1.57-17.77,4.7-3.39,3.13-5.09,7.05-5.09,11.74,0,5.22,1.98,9.39,5.95,12.53,3.97,3.13,9.55,4.7,16.75,4.7s12.71-1.57,17.46-4.7c4.75-3.13,8.27-7.67,10.57-13.62l2.19,5.32c-2.19,5.95-5.93,10.67-11.19,14.17-5.27,3.5-11.98,5.24-20.12,5.24ZM140.6,304.06v-18.63l-.31-2.82v-30.69c0-7.62-2.06-13.41-6.19-17.38-4.12-3.97-10.15-5.95-18.08-5.95-5.64,0-10.88.97-15.74,2.9-4.85,1.93-9,4.41-12.45,7.44l-3.91-5.64c4.07-3.65,8.98-6.5,14.72-8.53,5.74-2.04,11.74-3.05,18.01-3.05,10.12,0,17.9,2.56,23.33,7.67,5.43,5.12,8.14,12.74,8.14,22.86v51.82h-7.52Z"/>
      <path class="cls-1" d="M220.29,221.71c6.68,0,12.5,1.28,17.46,3.84,4.96,2.56,8.82,6.42,11.59,11.59,2.76,5.17,4.15,11.56,4.15,19.18v47.75h-7.83v-47.13c0-9.18-2.32-16.18-6.97-20.98-4.65-4.8-11.14-7.2-19.49-7.2-6.37,0-11.9,1.31-16.6,3.91-4.7,2.61-8.27,6.26-10.73,10.96-2.45,4.7-3.68,10.33-3.68,16.91v43.53h-7.83v-81.73h7.51v22.7l-1.1-2.51c2.51-6.47,6.63-11.56,12.37-15.27,5.74-3.7,12.78-5.56,21.14-5.56Z"/>
      <path class="cls-1" d="M317.21,304.69c-7.62,0-14.48-1.75-20.59-5.24-6.11-3.5-10.94-8.38-14.48-14.64-3.55-6.26-5.32-13.46-5.32-21.61s1.77-15.47,5.32-21.68c3.55-6.21,8.38-11.06,14.48-14.56,6.11-3.5,12.97-5.24,20.59-5.24,7.2,0,13.7,1.67,19.49,5.01,5.79,3.34,10.39,8.09,13.78,14.25,3.39,6.16,5.09,13.57,5.09,22.23s-1.67,15.81-5.01,22.08c-3.34,6.26-7.91,11.07-13.7,14.4-5.79,3.34-12.34,5.01-19.65,5.01ZM317.68,297.64c6.26,0,11.87-1.43,16.83-4.31,4.96-2.87,8.87-6.91,11.74-12.13,2.87-5.22,4.31-11.22,4.31-18.01s-1.44-12.92-4.31-18.08c-2.87-5.17-6.79-9.18-11.74-12.06-4.96-2.87-10.57-4.31-16.83-4.31s-11.88,1.44-16.83,4.31c-4.96,2.87-8.87,6.89-11.74,12.06-2.87,5.17-4.31,11.19-4.31,18.08s1.43,12.79,4.31,18.01c2.87,5.22,6.78,9.27,11.74,12.13,4.96,2.87,10.57,4.31,16.83,4.31ZM350.72,304.06v-26.77l1.41-14.25-1.57-14.25v-60.91h7.83v116.18h-7.67Z"/>
    </g>
    <rect class="cls-1" x="381.77" y="152.34" width="152.34" height="152.34" rx="30" ry="30"/>
    <g>
      <path class="cls-2" d="M434.66,291.13v-.97l1.24-1.2c2.98-2.83,4.32-4.34,4.34-6.1,0-1.18-.57-2.28-2.31-2.28-1.06,0-1.94.54-2.47.99l-.5-1.11c.81-.68,1.95-1.18,3.3-1.18,2.51,0,3.57,1.72,3.57,3.39,0,2.15-1.56,3.89-4.02,6.26l-.93.86v.04h5.24v1.31h-7.44Z"/>
      <path class="cls-2" d="M455.4,285.18c0,3.96-1.47,6.15-4.05,6.15-2.28,0-3.82-2.13-3.85-5.99,0-3.91,1.69-6.06,4.05-6.06s3.85,2.19,3.85,5.9ZM449.07,285.36c0,3.03.93,4.75,2.37,4.75,1.61,0,2.38-1.88,2.38-4.86s-.74-4.75-2.37-4.75c-1.38,0-2.38,1.69-2.38,4.86Z"/>
      <path class="cls-2" d="M460.65,291.13v-.97l1.24-1.2c2.98-2.83,4.32-4.34,4.34-6.1,0-1.18-.57-2.28-2.31-2.28-1.06,0-1.94.54-2.47.99l-.5-1.11c.81-.68,1.95-1.18,3.3-1.18,2.51,0,3.57,1.72,3.57,3.39,0,2.15-1.56,3.89-4.02,6.26l-.93.86v.04h5.24v1.31h-7.44Z"/>
      <path class="cls-2" d="M480.6,280.81h-4.45l-.45,2.99c.27-.04.52-.07.95-.07.9,0,1.79.2,2.51.63.91.52,1.67,1.52,1.67,2.99,0,2.28-1.81,3.98-4.34,3.98-1.27,0-2.35-.36-2.9-.72l.39-1.2c.48.29,1.43.65,2.49.65,1.49,0,2.76-.97,2.76-2.53-.02-1.51-1.02-2.58-3.35-2.58-.66,0-1.18.07-1.61.13l.75-5.59h5.58v1.33Z"/>
    </g>
    <g>
      <path class="cls-2" d="M455.96,214.86c-10.77-11.01-15.58-21.37-16.3-33.32-.33-5.5.83-11.72,4.96-16.3,3.07,1.89,6.14,3.78,9.22,5.67l7.09-9.92c8.16,5.22,13.11,13.95,13.47,24.81.41,12.3-7.48,23.84-18.43,29.06Z"/>
      <path class="cls-2" d="M451,219.11c-13.42,7.55-24,9.52-35.72,7.13-5.4-1.1-11.1-3.83-14.46-9.01,2.62-2.48,5.24-4.96,7.86-7.43l-7.75-9.42c7.15-6.53,16.87-9.05,27.45-6.59,11.99,2.79,20.42,13.4,22.63,25.32Z"/>
      <path class="cls-2" d="M452.42,224.55c3.82,14.92,2.81,26.3-2.54,37-2.46,4.93-6.58,9.73-12.45,11.64-1.72-3.17-3.43-6.35-5.15-9.52l-11.1,5.05c-4.46-8.6-4.37-18.64.74-28.22,5.8-10.86,18.4-16.91,30.49-15.95Z"/>
      <path class="cls-2" d="M458.8,225.25c15.39.44,26.05,4.55,34.87,12.64,4.06,3.72,7.54,9.01,7.76,15.17-3.52.77-7.05,1.55-10.57,2.32l1.79,12.06c-9.49,1.91-19.12-.93-26.92-8.49-8.84-8.56-11.18-22.35-6.93-33.71Z"/>
      <path class="cls-2" d="M461.64,216.28c8.08-13.11,16.93-20.06,28.35-23.66,5.26-1.65,11.57-2.03,17.02.87-1.09,3.44-2.18,6.88-3.27,10.31l11.34,4.48c-3.09,9.18-10.37,16.09-20.81,19.07-11.84,3.37-24.91-1.71-32.62-11.08Z"/>
    </g>
  </g>
</svg>